<?xml version="1.0" encoding="UTF-8" standalone="no"?>
<!-- Created with Inkscape (http://www.inkscape.org/) -->

<svg
   xmlns:dc="http://purl.org/dc/elements/1.1/"
   xmlns:cc="http://creativecommons.org/ns#"
   xmlns:rdf="http://www.w3.org/1999/02/22-rdf-syntax-ns#"
   xmlns:svg="http://www.w3.org/2000/svg"
   xmlns="http://www.w3.org/2000/svg"
   xmlns:sodipodi="http://sodipodi.sourceforge.net/DTD/sodipodi-0.dtd"
   xmlns:inkscape="http://www.inkscape.org/namespaces/inkscape"
   width="96.341232mm"
   height="34.301006mm"
   viewBox="0 0 96.34123 34.301006"
   version="1.1"
   id="svg7038"
   inkscape:version="0.92.3 (unknown)"
   sodipodi:docname="momentum.svg">
  <defs
     id="defs7032">
    <marker
       inkscape:isstock="true"
       style="overflow:visible"
       id="marker15260"
       refX="0"
       refY="0"
       orient="auto"
       inkscape:stockid="Arrow1Mend">
      <path
         transform="matrix(-0.4,0,0,-0.4,-4,0)"
         style="fill:#ff0000;fill-opacity:1;fill-rule:evenodd;stroke:#ff0000;stroke-width:1.00000003pt;stroke-opacity:1"
         d="M 0,0 5,-5 -12.5,0 5,5 Z"
         id="path15258"
         inkscape:connector-curvature="0" />
    </marker>
    <marker
       inkscape:stockid="Arrow1Mend"
       orient="auto"
       refY="0"
       refX="0"
       id="Arrow1Mend"
       style="overflow:visible"
       inkscape:isstock="true">
      <path
         id="path1016"
         d="M 0,0 5,-5 -12.5,0 5,5 Z"
         style="fill:#0000ff;fill-opacity:1;fill-rule:evenodd;stroke:#0000ff;stroke-width:1.00000003pt;stroke-opacity:1"
         transform="matrix(-0.4,0,0,-0.4,-4,0)"
         inkscape:connector-curvature="0" />
    </marker>
    <marker
       inkscape:stockid="Arrow1Mend"
       orient="auto"
       refY="0"
       refX="0"
       id="Arrow1Mend-5"
       style="overflow:visible"
       inkscape:isstock="true"
       inkscape:collect="always">
      <path
         inkscape:connector-curvature="0"
         id="path1016-8"
         d="M 0,0 5,-5 -12.5,0 5,5 Z"
         style="fill:#ff0000;fill-opacity:1;fill-rule:evenodd;stroke:#ff0000;stroke-width:1.00000003pt;stroke-opacity:1"
         transform="matrix(-0.4,0,0,-0.4,-4,0)" />
    </marker>
    <marker
       inkscape:stockid="Arrow1Mend"
       orient="auto"
       refY="0"
       refX="0"
       id="Arrow1Mend-6"
       style="overflow:visible"
       inkscape:isstock="true">
      <path
         inkscape:connector-curvature="0"
         id="path1016-0"
         d="M 0,0 5,-5 -12.5,0 5,5 Z"
         style="fill:#0000ff;fill-opacity:1;fill-rule:evenodd;stroke:#0000ff;stroke-width:1.00000003pt;stroke-opacity:1"
         transform="matrix(-0.4,0,0,-0.4,-4,0)" />
    </marker>
    <marker
       inkscape:stockid="Arrow1Mend"
       orient="auto"
       refY="0"
       refX="0"
       id="Arrow1Mend-64"
       style="overflow:visible"
       inkscape:isstock="true">
      <path
         inkscape:connector-curvature="0"
         id="path1016-6"
         d="M 0,0 5,-5 -12.5,0 5,5 Z"
         style="fill:#0000ff;fill-opacity:1;fill-rule:evenodd;stroke:#0000ff;stroke-width:1.00000003pt;stroke-opacity:1"
         transform="matrix(-0.4,0,0,-0.4,-4,0)" />
    </marker>
    <marker
       inkscape:stockid="Arrow1Mend"
       orient="auto"
       refY="0"
       refX="0"
       id="Arrow1Mend-6-9"
       style="overflow:visible"
       inkscape:isstock="true">
      <path
         inkscape:connector-curvature="0"
         id="path1016-0-6"
         d="M 0,0 5,-5 -12.5,0 5,5 Z"
         style="fill:#0000ff;fill-opacity:1;fill-rule:evenodd;stroke:#0000ff;stroke-width:1.00000003pt;stroke-opacity:1"
         transform="matrix(-0.4,0,0,-0.4,-4,0)" />
    </marker>
    <marker
       inkscape:stockid="Arrow1Mend"
       orient="auto"
       refY="0"
       refX="0"
       id="Arrow1Mend-64-7"
       style="overflow:visible"
       inkscape:isstock="true">
      <path
         inkscape:connector-curvature="0"
         id="path1016-6-0"
         d="M 0,0 5,-5 -12.5,0 5,5 Z"
         style="fill:#0000ff;fill-opacity:1;fill-rule:evenodd;stroke:#0000ff;stroke-width:1.00000003pt;stroke-opacity:1"
         transform="matrix(-0.4,0,0,-0.4,-4,0)" />
    </marker>
    <marker
       inkscape:stockid="Arrow1Mend"
       orient="auto"
       refY="0"
       refX="0"
       id="Arrow1Mend-6-9-0"
       style="overflow:visible"
       inkscape:isstock="true">
      <path
         inkscape:connector-curvature="0"
         id="path1016-0-6-1"
         d="M 0,0 5,-5 -12.5,0 5,5 Z"
         style="fill:#0000ff;fill-opacity:1;fill-rule:evenodd;stroke:#0000ff;stroke-width:1.00000003pt;stroke-opacity:1"
         transform="matrix(-0.4,0,0,-0.4,-4,0)" />
    </marker>
    <marker
       inkscape:stockid="Arrow1Mend"
       orient="auto"
       refY="0"
       refX="0"
       id="Arrow1Mend-64-7-7"
       style="overflow:visible"
       inkscape:isstock="true">
      <path
         inkscape:connector-curvature="0"
         id="path1016-6-0-7"
         d="M 0,0 5,-5 -12.5,0 5,5 Z"
         style="fill:#0000ff;fill-opacity:1;fill-rule:evenodd;stroke:#0000ff;stroke-width:1.00000003pt;stroke-opacity:1"
         transform="matrix(-0.4,0,0,-0.4,-4,0)" />
    </marker>
    <marker
       inkscape:stockid="Arrow1Mend"
       orient="auto"
       refY="0"
       refX="0"
       id="Arrow1Mend-6-9-0-6"
       style="overflow:visible"
       inkscape:isstock="true">
      <path
         inkscape:connector-curvature="0"
         id="path1016-0-6-1-4"
         d="M 0,0 5,-5 -12.5,0 5,5 Z"
         style="fill:#0000ff;fill-opacity:1;fill-rule:evenodd;stroke:#0000ff;stroke-width:1.00000003pt;stroke-opacity:1"
         transform="matrix(-0.4,0,0,-0.4,-4,0)" />
    </marker>
    <marker
       inkscape:stockid="Arrow1Mend"
       orient="auto"
       refY="0"
       refX="0"
       id="Arrow1Mend-64-7-7-2"
       style="overflow:visible"
       inkscape:isstock="true">
      <path
         inkscape:connector-curvature="0"
         id="path1016-6-0-7-0"
         d="M 0,0 5,-5 -12.5,0 5,5 Z"
         style="fill:#0000ff;fill-opacity:1;fill-rule:evenodd;stroke:#0000ff;stroke-width:1.00000003pt;stroke-opacity:1"
         transform="matrix(-0.4,0,0,-0.4,-4,0)" />
    </marker>
    <marker
       inkscape:stockid="Arrow1Mend"
       orient="auto"
       refY="0"
       refX="0"
       id="Arrow1Mend-6-9-0-9"
       style="overflow:visible"
       inkscape:isstock="true">
      <path
         inkscape:connector-curvature="0"
         id="path1016-0-6-1-0"
         d="M 0,0 5,-5 -12.5,0 5,5 Z"
         style="fill:#0000ff;fill-opacity:1;fill-rule:evenodd;stroke:#0000ff;stroke-width:1.00000003pt;stroke-opacity:1"
         transform="matrix(-0.4,0,0,-0.4,-4,0)" />
    </marker>
    <marker
       inkscape:stockid="Arrow1Mend"
       orient="auto"
       refY="0"
       refX="0"
       id="Arrow1Mend-6-9-0-94"
       style="overflow:visible"
       inkscape:isstock="true">
      <path
         inkscape:connector-curvature="0"
         id="path1016-0-6-1-5"
         d="M 0,0 5,-5 -12.5,0 5,5 Z"
         style="fill:#0000ff;fill-opacity:1;fill-rule:evenodd;stroke:#0000ff;stroke-width:1.00000003pt;stroke-opacity:1"
         transform="matrix(-0.4,0,0,-0.4,-4,0)" />
    </marker>
    <marker
       inkscape:stockid="Arrow1Mend"
       orient="auto"
       refY="0"
       refX="0"
       id="Arrow1Mend-64-7-7-2-0"
       style="overflow:visible"
       inkscape:isstock="true">
      <path
         inkscape:connector-curvature="0"
         id="path1016-6-0-7-0-3"
         d="M 0,0 5,-5 -12.5,0 5,5 Z"
         style="fill:#0000ff;fill-opacity:1;fill-rule:evenodd;stroke:#0000ff;stroke-width:1.00000003pt;stroke-opacity:1"
         transform="matrix(-0.4,0,0,-0.4,-4,0)" />
    </marker>
    <marker
       inkscape:stockid="Arrow1Mend"
       orient="auto"
       refY="0"
       refX="0"
       id="Arrow1Mend-8"
       style="overflow:visible"
       inkscape:isstock="true">
      <path
         inkscape:connector-curvature="0"
         id="path1016-86"
         d="M 0,0 5,-5 -12.5,0 5,5 Z"
         style="fill:#ff0000;fill-opacity:1;fill-rule:evenodd;stroke:#0000ff;stroke-width:1.00000003pt;stroke-opacity:1"
         transform="matrix(-0.4,0,0,-0.4,-4,0)" />
    </marker>
    <marker
       inkscape:isstock="true"
       style="overflow:visible"
       id="marker15260-4"
       refX="0"
       refY="0"
       orient="auto"
       inkscape:stockid="Arrow1Mend">
      <path
         transform="matrix(-0.4,0,0,-0.4,-4,0)"
         style="fill:#ff0000;fill-opacity:1;fill-rule:evenodd;stroke:#ff0000;stroke-width:1.00000003pt;stroke-opacity:1"
         d="M 0,0 5,-5 -12.5,0 5,5 Z"
         id="path15258-6"
         inkscape:connector-curvature="0" />
    </marker>
    <marker
       inkscape:isstock="true"
       style="overflow:visible"
       id="marker15260-6"
       refX="0"
       refY="0"
       orient="auto"
       inkscape:stockid="Arrow1Mend">
      <path
         transform="matrix(-0.4,0,0,-0.4,-4,0)"
         style="fill:#ff0000;fill-opacity:1;fill-rule:evenodd;stroke:#ff0000;stroke-width:1.00000003pt;stroke-opacity:1"
         d="M 0,0 5,-5 -12.5,0 5,5 Z"
         id="path15258-0"
         inkscape:connector-curvature="0" />
    </marker>
    <marker
       inkscape:isstock="true"
       style="overflow:visible"
       id="marker15260-6-7"
       refX="0"
       refY="0"
       orient="auto"
       inkscape:stockid="Arrow1Mend">
      <path
         transform="matrix(-0.4,0,0,-0.4,-4,0)"
         style="fill:#ff0000;fill-opacity:1;fill-rule:evenodd;stroke:#ff0000;stroke-width:1.00000003pt;stroke-opacity:1"
         d="M 0,0 5,-5 -12.5,0 5,5 Z"
         id="path15258-0-5"
         inkscape:connector-curvature="0" />
    </marker>
    <marker
       inkscape:isstock="true"
       style="overflow:visible"
       id="marker15260-6-7-7"
       refX="0"
       refY="0"
       orient="auto"
       inkscape:stockid="Arrow1Mend">
      <path
         transform="matrix(-0.4,0,0,-0.4,-4,0)"
         style="fill:#ff0000;fill-opacity:1;fill-rule:evenodd;stroke:#ff0000;stroke-width:1.00000003pt;stroke-opacity:1"
         d="M 0,0 5,-5 -12.5,0 5,5 Z"
         id="path15258-0-5-8"
         inkscape:connector-curvature="0" />
    </marker>
    <marker
       inkscape:isstock="true"
       style="overflow:visible"
       id="marker15260-6-7-7-3"
       refX="0"
       refY="0"
       orient="auto"
       inkscape:stockid="Arrow1Mend">
      <path
         transform="matrix(-0.4,0,0,-0.4,-4,0)"
         style="fill:#ff0000;fill-opacity:1;fill-rule:evenodd;stroke:#ff0000;stroke-width:1.00000003pt;stroke-opacity:1"
         d="M 0,0 5,-5 -12.5,0 5,5 Z"
         id="path15258-0-5-8-3"
         inkscape:connector-curvature="0" />
    </marker>
  </defs>
  <sodipodi:namedview
     id="base"
     pagecolor="#ffffff"
     bordercolor="#666666"
     borderopacity="1.0"
     inkscape:pageopacity="0.0"
     inkscape:pageshadow="2"
     inkscape:zoom="1.0729879"
     inkscape:cx="98.15654"
     inkscape:cy="3.0565743"
     inkscape:document-units="mm"
     inkscape:current-layer="layer1"
     showgrid="false"
     inkscape:window-width="1366"
     inkscape:window-height="744"
     inkscape:window-x="0"
     inkscape:window-y="24"
     inkscape:window-maximized="1"
     inkscape:snap-global="false" />
  <metadata
     id="metadata7035">
    <rdf:RDF>
      <cc:Work
         rdf:about="">
        <dc:format>image/svg+xml</dc:format>
        <dc:type
           rdf:resource="http://purl.org/dc/dcmitype/StillImage" />
        <dc:title></dc:title>
      </cc:Work>
    </rdf:RDF>
  </metadata>
  <g
     inkscape:label="Layer 1"
     inkscape:groupmode="layer"
     id="layer1"
     transform="translate(-57.434624,-121.78376)">
    <ellipse
       style="opacity:0.947;fill:#ffffff;fill-opacity:0;stroke:#000000;stroke-width:2.2676053;stroke-linecap:round;stroke-linejoin:miter;stroke-miterlimit:4;stroke-dasharray:none;stroke-dashoffset:0;stroke-opacity:1;paint-order:stroke fill markers"
       id="path7601"
       cx="103.78053"
       cy="138.93428"
       rx="8.2616711"
       ry="2.3313553" />
    <ellipse
       style="opacity:0.947;fill:#ffffff;fill-opacity:0;stroke:#000000;stroke-width:1;stroke-linecap:round;stroke-linejoin:miter;stroke-miterlimit:4;stroke-dasharray:none;stroke-dashoffset:0;stroke-opacity:1;paint-order:stroke fill markers"
       id="path7605"
       cx="103.78053"
       cy="139.16237"
       rx="17.562859"
       ry="5.4741378" />
    <ellipse
       style="opacity:0.947;fill:#ffffff;fill-opacity:0;stroke:#000000;stroke-width:1;stroke-linecap:round;stroke-linejoin:miter;stroke-miterlimit:4;stroke-dasharray:none;stroke-dashoffset:0;stroke-opacity:1;paint-order:stroke fill markers"
       id="path7607"
       cx="105.14906"
       cy="139.16235"
       rx="29.423489"
       ry="6.8426723" />
    <ellipse
       style="opacity:0.947;fill:#ffffff;fill-opacity:0;stroke:#000000;stroke-width:1;stroke-linecap:round;stroke-linejoin:miter;stroke-miterlimit:4;stroke-dasharray:none;stroke-dashoffset:0;stroke-opacity:1;paint-order:stroke fill markers"
       id="path7613"
       cx="104.4648"
       cy="138.93427"
       rx="41.056034"
       ry="13.913434" />
    <ellipse
       style="opacity:0.947;fill:#ffffff;fill-opacity:0;stroke:#000000;stroke-width:1;stroke-linecap:round;stroke-linejoin:miter;stroke-miterlimit:4;stroke-dasharray:none;stroke-dashoffset:0;stroke-opacity:1;paint-order:stroke fill markers"
       id="path7617"
       cx="105.60524"
       cy="138.93427"
       rx="47.670616"
       ry="16.650503" />
    <ellipse
       style="opacity:0.947;fill:#ffffff;fill-opacity:0;stroke:#000000;stroke-width:1;stroke-linecap:round;stroke-linejoin:miter;stroke-miterlimit:4;stroke-dasharray:none;stroke-dashoffset:0;stroke-opacity:1;paint-order:stroke fill markers"
       id="path7609"
       cx="104.45567"
       cy="138.47809"
       rx="37.17852"
       ry="10.720187" />
    <path
       style="fill:#0000ff;stroke:#0000ff;stroke-width:0.91900003;stroke-linecap:butt;stroke-linejoin:miter;stroke-miterlimit:4;stroke-dasharray:none;stroke-opacity:1"
       d="M 62.982123,146.86912 65.246865,130.4933"
       id="path7624"
       inkscape:connector-curvature="0" />
    <path
       style="fill:#0000ff;stroke:#0000ff;stroke-width:2.33904719;stroke-linecap:butt;stroke-linejoin:miter;stroke-miterlimit:4;stroke-dasharray:none;stroke-opacity:1;marker-end:url(#Arrow1Mend-5)"
       d="M 1.1584971,66.458921 9.718152,4.5660574"
       id="path7624-2"
       inkscape:connector-curvature="0" />
    <path
       style="fill:#0000ff;stroke:#0000ff;stroke-width:0.91900003;stroke-linecap:butt;stroke-linejoin:miter;stroke-miterlimit:4;stroke-dasharray:none;stroke-opacity:1"
       d="m 65.246865,130.4933 4.294977,15.96401"
       id="path7624-6"
       inkscape:connector-curvature="0" />
    <path
       style="fill:#0000ff;stroke:#0000ff;stroke-width:0.91900003;stroke-linecap:butt;stroke-linejoin:miter;stroke-miterlimit:4;stroke-dasharray:none;stroke-opacity:1"
       d="m 69.541842,146.45731 2.264742,-16.37582"
       id="path7624-28"
       inkscape:connector-curvature="0" />
    <path
       style="fill:#0000ff;stroke:#0000ff;stroke-width:0.92299998;stroke-linecap:butt;stroke-linejoin:miter;stroke-miterlimit:4;stroke-dasharray:none;stroke-opacity:1"
       d="m 71.774905,130.03186 3.260828,15.00595"
       id="path7624-6-0"
       inkscape:connector-curvature="0" />
    <path
       style="fill:#0000ff;stroke:#0000ff;stroke-width:0.97899997;stroke-linecap:butt;stroke-linejoin:miter;stroke-miterlimit:4;stroke-dasharray:none;stroke-opacity:1"
       d="m 74.983307,144.98713 2.345831,-13.83462"
       id="path7624-28-1"
       inkscape:connector-curvature="0" />
    <path
       style="fill:#0000ff;stroke:#0000ff;stroke-width:0.98799998;stroke-linecap:butt;stroke-linejoin:miter;stroke-miterlimit:4;stroke-dasharray:none;stroke-opacity:1"
       d="m 77.28257,131.19953 3.519434,12.10094"
       id="path7624-6-0-3"
       inkscape:connector-curvature="0" />
    <path
       style="fill:#0000ff;stroke:#0000ff;stroke-width:0.97500002;stroke-linecap:butt;stroke-linejoin:miter;stroke-miterlimit:4;stroke-dasharray:none;stroke-opacity:1"
       d="m 80.618956,143.09783 3.885028,-8.24815"
       id="path7624-28-1-2"
       inkscape:connector-curvature="0" />
    <path
       style="fill:#0000ff;stroke:#0000ff;stroke-width:0.97500002;stroke-linecap:butt;stroke-linejoin:miter;stroke-miterlimit:4;stroke-dasharray:none;stroke-opacity:1"
       d="m 87.149907,144.11873 3.885029,-8.24815"
       id="path7624-28-1-2-2"
       inkscape:connector-curvature="0"
       inkscape:transform-center-x="-0.63735328"
       inkscape:transform-center-y="15.988745" />
    <path
       style="fill:#0000ff;stroke:#0000ff;stroke-width:0.91900003;stroke-linecap:butt;stroke-linejoin:miter;stroke-miterlimit:4;stroke-dasharray:none;stroke-opacity:1"
       d="m 84.15964,133.6053 2.990267,10.51343"
       id="path7624-6-0-3-9"
       inkscape:connector-curvature="0" />
    <path
       style="fill:#0000ff;stroke:#0000ff;stroke-width:0.99599999;stroke-linecap:butt;stroke-linejoin:miter;stroke-miterlimit:4;stroke-dasharray:none;stroke-opacity:1"
       d="m 90.963607,135.90855 3.660713,7.65891"
       id="path7624-6-0-3-1"
       inkscape:connector-curvature="0" />
    <path
       style="fill:#0000ff;stroke:#0000ff;stroke-width:0.92799997;stroke-linecap:butt;stroke-linejoin:miter;stroke-miterlimit:4;stroke-dasharray:none;stroke-opacity:1"
       d="m 94.572416,143.53312 4.160247,-6.49901"
       id="path7624-28-1-2-2-7"
       inkscape:connector-curvature="0"
       inkscape:transform-center-x="-0.68250402"
       inkscape:transform-center-y="12.598092" />
    <path
       style="fill:#ffff00;stroke:#fffe00;stroke-width:1.06389058;stroke-linecap:butt;stroke-linejoin:miter;stroke-miterlimit:4;stroke-dasharray:none;stroke-opacity:1"
       d="m 63.497824,146.19202 3.888381,-9.8521"
       id="path15250"
       inkscape:connector-curvature="0" />
    <path
       style="fill:#ff0000;stroke:#ffff00;stroke-width:0.78027409;stroke-linecap:butt;stroke-linejoin:miter;stroke-miterlimit:4;stroke-dasharray:none;stroke-opacity:1"
       d="m 67.276887,136.64715 4.918039,7.28516"
       id="path15250-7"
       inkscape:connector-curvature="0" />
    <path
       style="fill:#ff0000;stroke:#fffa00;stroke-width:0.97600001;stroke-linecap:butt;stroke-linejoin:miter;stroke-miterlimit:4;stroke-dasharray:none;stroke-opacity:1"
       d="m 72.345782,144.24496 3.92972,-6.47897"
       id="path15250-9"
       inkscape:connector-curvature="0" />
    <path
       style="fill:#ff0000;stroke:#fffa00;stroke-width:0.92000002;stroke-linecap:butt;stroke-linejoin:miter;stroke-miterlimit:4;stroke-dasharray:none;stroke-opacity:1"
       d="m 76.090815,137.42437 5.53008,5.17944"
       id="path15250-9-9"
       inkscape:connector-curvature="0" />
    <path
       style="fill:#ff0000;stroke:#fffe00;stroke-width:0.92000002;stroke-linecap:butt;stroke-linejoin:miter;stroke-miterlimit:4;stroke-dasharray:none;stroke-opacity:1"
       d="m 81.403043,143.61457 4.980863,-5.70959"
       id="path15250-9-9-5"
       inkscape:connector-curvature="0" />
    <path
       style="fill:#ff0000;stroke:#fffd00;stroke-width:0.92000002;stroke-linecap:butt;stroke-linejoin:miter;stroke-miterlimit:4;stroke-dasharray:none;stroke-opacity:1"
       d="m 86.694675,137.70111 5.328976,5.38613"
       id="path15250-9-9-5-8"
       inkscape:connector-curvature="0" />
    <path
       style="fill:#ff0000;stroke:#fffd00;stroke-width:0.92000002;stroke-linecap:butt;stroke-linejoin:miter;stroke-miterlimit:4;stroke-dasharray:none;stroke-opacity:1"
       d="m 97.089314,137.63136 -5.422886,5.29157"
       id="path15250-9-9-5-8-3"
       inkscape:connector-curvature="0"
       inkscape:transform-center-x="1.1913055"
       inkscape:transform-center-y="9.1333424" />
    <path
       style="opacity:0.947;fill:#00ff00;fill-opacity:0;stroke:#fffd00;stroke-width:3.24063802;stroke-linecap:round;stroke-linejoin:miter;stroke-miterlimit:4;stroke-dasharray:none;stroke-dashoffset:0;stroke-opacity:1;paint-order:stroke fill markers"
       d="m 239.85304,552.10139 c -0.82359,-0.29605 -0.53573,-1.97522 1.05686,-6.16508 8.16652,-21.48481 12.00819,-30.45561 13.04235,-30.45561 0.65232,0 5.26726,6.12569 10.25543,13.61265 l 9.06941,13.61265 4.96963,-8.25378 c 6.30679,-10.47459 9.59526,-15.24739 10.49317,-15.22954 0.38931,0.008 5.0833,4.11754 10.4311,9.1329 6.37987,5.98327 9.47847,9.51488 9.01138,10.27066 -0.49057,0.79375 -3.61432,-1.52419 -10.04767,-7.45573 -7.22657,-6.66289 -9.51097,-8.30218 -10.11118,-7.25582 -7.96674,13.88853 -12.8964,20.8916 -14.50214,20.60169 -0.97967,-0.17688 -1.82132,-0.38658 -1.87034,-0.46599 -0.049,-0.0794 -3.85229,-5.6606 -8.45172,-12.40264 l -8.36259,-12.25824 -6.38108,16.25942 c -3.5096,8.94268 -6.62626,16.3944 -6.92591,16.55937 -0.29965,0.16497 -1.05416,0.11686 -1.6767,-0.10691 z"
       id="path19600"
       inkscape:connector-curvature="0"
       transform="scale(0.26458333)" />
    <path
       style="opacity:0.947;fill:#00ff00;fill-opacity:0;stroke:#fffd00;stroke-width:3.24063802;stroke-linecap:round;stroke-linejoin:miter;stroke-miterlimit:4;stroke-dasharray:none;stroke-dashoffset:0;stroke-opacity:1;paint-order:stroke fill markers"
       d=""
       id="path19602"
       inkscape:connector-curvature="0"
       transform="scale(0.26458333)" />
    <path
       style="opacity:0.947;fill:#00ff00;fill-opacity:0;stroke:#fffd00;stroke-width:3.24063802;stroke-linecap:round;stroke-linejoin:miter;stroke-miterlimit:4;stroke-dasharray:none;stroke-dashoffset:0;stroke-opacity:1;paint-order:stroke fill markers"
       d="m 336.71563,531.5105 c -6.02123,-6.37802 -9.09256,-10.2963 -8.52192,-10.87191 0.57125,-0.57622 4.15988,2.35545 9.97571,8.14946 l 9.0835,9.04942 8.96915,-8.96915 c 5.75798,-5.75798 9.37649,-8.7174 10.10691,-8.26598 0.76787,0.47457 -1.84869,3.7156 -8.04849,9.96933 -5.05243,5.09639 -9.85325,9.6362 -10.66849,10.08847 -1.15664,0.64168 -3.55027,-1.36825 -10.89637,-9.14964 z"
       id="path19610"
       inkscape:connector-curvature="0"
       transform="scale(0.26458333)" />
    <path
       style="opacity:0.947;fill:#00ff00;fill-opacity:0;stroke:#fffd00;stroke-width:3.24063802;stroke-linecap:round;stroke-linejoin:miter;stroke-miterlimit:4;stroke-dasharray:none;stroke-dashoffset:0;stroke-opacity:1;paint-order:stroke fill markers"
       d="m 239.60284,552.78931 c -1.18304,-0.74804 -0.87395,-2.39023 2.1462,-11.40245 4.80887,-14.3498 10.12963,-26.29078 11.86367,-26.62472 1.39836,-0.2693 11.13763,11.6818 11.13763,13.66703 0,0.51433 1.08285,2.10356 2.40633,3.53162 1.32348,1.42807 3.09146,3.75632 3.92885,5.1739 0.83738,1.41757 1.74969,2.57741 2.02734,2.57741 0.54449,0 4.76899,-6.44914 8.21493,-12.54094 1.17249,-2.07276 3.33135,-4.97583 4.79747,-6.45126 2.5536,-2.56982 2.75748,-2.6183 4.84937,-1.15309 1.20103,0.84124 5.99921,5.30424 10.66262,9.91779 l 8.47892,8.38826 4.69446,-5.37122 c 2.58195,-2.95418 5.97863,-6.83031 7.54818,-8.61364 1.56954,-1.78332 3.15296,-2.94316 3.5187,-2.57742 0.36575,0.36574 1.12996,0.0291 1.69826,-0.7481 0.89337,-1.22175 1.56832,-1.0196 4.98503,1.49308 2.17346,1.59839 3.95176,3.51212 3.95176,4.25275 0,0.74062 0.73393,1.60258 1.63096,1.91546 0.89703,0.31288 3.33435,2.19675 5.41628,4.18637 l 3.78531,3.61749 4.13649,-4.05617 c 6.72941,-6.59874 13.91862,-12.76285 14.88533,-12.76285 0.49548,0 0.90087,0.78848 0.90087,1.75219 0,2.33612 -17.99004,20.61525 -20.28921,20.61525 -1.03701,0 -5.50125,-3.88694 -10.70395,-9.31977 -4.90876,-5.12587 -9.09205,-9.31977 -9.2962,-9.31977 -0.20416,0 -4.3009,4.5903 -9.10387,10.20066 -8.11764,9.48223 -10.25329,11.15377 -10.25329,8.02508 0,-0.67968 -0.99576,-1.88822 -2.21279,-2.68565 -2.41814,-1.58443 -15.63305,-12.7353 -16.49583,-13.91935 -0.29429,-0.40387 -1.75162,1.68743 -3.23853,4.64734 -1.48691,2.9599 -3.44792,6.19465 -4.35781,7.18833 -0.9099,0.99368 -1.65435,2.16399 -1.65435,2.60067 0,0.43669 -0.91765,2.03517 -2.03922,3.55218 -3.2369,4.37814 -5.77116,3.70388 -9.77489,-2.60068 -1.87174,-2.94737 -3.686,-5.56856 -4.03169,-5.82485 -0.6123,-0.45396 -5.93286,-8.23324 -8.03972,-11.75503 -0.93151,-1.55708 -1.18309,-1.27797 -2.19509,2.43526 -1.04757,3.84373 -7.45397,20.21425 -10.30328,26.32835 -1.30815,2.80707 -1.63113,2.95299 -3.67524,1.66049 z"
       id="path19616"
       inkscape:connector-curvature="0"
       transform="scale(0.26458333)" />
  </g>
</svg>
